<svg width="1280" height="720" xmlns="http://www.w3.org/2000/svg" xmlns:xlink="http://www.w3.org/1999/xlink" overflow="hidden">
   <defs>
      <clipPath id="clip0">
         <rect x="0" y="0" width="1280" height="720"/>
      </clipPath>
      <linearGradient x1="531.311" y1="-134.599" x2="673.689" y2="431.599" gradientUnits="userSpaceOnUse" spreadMethod="reflect" id="fill1">
         <stop offset="0" stop-color="#7DEFE6" stop-opacity="0.2"/>
         <stop offset="0.5" stop-color="#BFBFBF" stop-opacity="0.2"/>
         <stop offset="1" stop-color="#A6A6A6" stop-opacity="0.2"/>
      </linearGradient>
   </defs>
   <g clip-path="url(#clip0)">
      <path d="M4-2 1144.38-2 1201 54.6181 1201 299 1201 299 60.6179 299 4 242.382 4-2Z" stroke="#7DEFE6" stroke-width="2" stroke-miterlimit="8" fill="url(#fill1)" fill-rule="evenodd"/>
      <path d="M0 0 186.5 0 195 8.50014 195 51 195 51 8.50011 51 0 42.4999 0 0Z" stroke="#7DEFE6" stroke-width="2" stroke-miterlimit="8" fill="none" fill-rule="evenodd" transform="matrix(1 0 0 -1 356 67)"/>
      <path d="M0 0 185.5 0 194 8.50025 194 51 194 51 8.50023 51 0 42.4997 0 0Z" stroke="#7DEFE6" stroke-width="2" stroke-miterlimit="8" fill="none" fill-rule="evenodd" transform="matrix(1 0 0 -1 389 135)"/>
      <path d="M0 0 185.333 0 194 8.66681 194 52 194 52 8.66677 52 0 43.3332 0 0Z" stroke="#7DEFE6" stroke-width="2" stroke-miterlimit="8" fill="none" fill-rule="evenodd" transform="matrix(1 0 0 -1 390 205)"/>
      <path d="M0 0 185.5 0 194 8.50025 194 51 194 51 8.50023 51 0 42.4997 0 0Z" stroke="#7DEFE6" stroke-width="2" stroke-miterlimit="8" fill="none" fill-rule="evenodd" transform="matrix(1 0 0 -1 358 273)"/>
      <path d="M5-1 28 22.1748 28 62 5 38.8252Z" stroke="#7DEFE6" stroke-width="2" stroke-miterlimit="8" fill="#7DEFE6" fill-rule="evenodd"/>
      <path d="M4.00005 48.9999 27.0001 72.1747 27.0001 90.9999 4.00005 67.8252Z" stroke="#7DEFE6" stroke-width="2" stroke-miterlimit="8" fill="#7DEFE6" fill-rule="evenodd"/>
      <path d="M0 22 22.1671 0 245 0 222.833 22Z" stroke="#7DEFE6" stroke-width="2" stroke-miterlimit="8" fill="#7DEFE6" fill-rule="evenodd" transform="matrix(1 0 0 -1 5 21)"/>
      <path d="M4 78 27 101.175 27 121 4 97.8252Z" stroke="#7DEFE6" stroke-width="2" stroke-miterlimit="8" fill="#7DEFE6" fill-rule="evenodd"/>
      <path d="M4.00005 108 27.0001 131.175 27.0001 150 4.00005 126.825Z" stroke="#7DEFE6" stroke-width="2" stroke-miterlimit="8" fill="#7DEFE6" fill-rule="evenodd"/>
      <path d="M5 138 28 161.175 28 181 5 157.825Z" stroke="#7DEFE6" stroke-width="2" stroke-miterlimit="8" fill="#7DEFE6" fill-rule="evenodd"/>
      <path d="M572 273 699 273 712 286 712 299 712 299 559 299 559 299 559 286Z" stroke="#7DEFE6" stroke-width="2" stroke-miterlimit="8" fill="#7DEFE6" fill-rule="evenodd"/>
      <path d="M0 0 157 0 174 17.0001 174 34 0 34Z" stroke="#7DEFE6" stroke-width="2" stroke-miterlimit="8" fill="#7DEFE6" fill-rule="evenodd" transform="matrix(-1 0 0 1 1201 265)"/>
      <path d="M1154.6-3.53847 1182.37-3.17739 1202.45 16.902 1202.81 44.6739Z" stroke="#7DEFE6" stroke-width="2" stroke-miterlimit="8" fill="#7DEFE6" fill-rule="evenodd"/>
      <path d="M356 60 405.833 60 407 61.1667 407 67 356 67Z" stroke="#7DEFE6" stroke-width="2" stroke-miterlimit="8" fill="#7DEFE6" fill-rule="evenodd"/>
      <path d="M357 265 406.667 265 408 266.333 408 273 357 273Z" stroke="#7DEFE6" stroke-width="2" stroke-miterlimit="8" fill="#7DEFE6" fill-rule="evenodd"/>
      <path d="M389 197 438.667 197 440 198.333 440 205 389 205Z" stroke="#7DEFE6" stroke-width="2" stroke-miterlimit="8" fill="#7DEFE6" fill-rule="evenodd"/>
      <path d="M389 128 437.667 128 439 129.333 439 136 389 136Z" stroke="#7DEFE6" stroke-width="2" stroke-miterlimit="8" fill="#7DEFE6" fill-rule="evenodd"/>
      <path d="M5 169 28 192.175 28 212 5 188.825Z" stroke="#7DEFE6" stroke-width="2" stroke-miterlimit="8" fill="#7DEFE6" fill-rule="evenodd"/>
      <path d="M357 51 302.368 63.1875 263 90" stroke="#7DEFE6" stroke-width="2" stroke-miterlimit="8" fill="none" fill-rule="evenodd"/>
      <path d="M388 119 348 121.308 300 139" stroke="#7DEFE6" stroke-width="2" stroke-miterlimit="8" fill="none" fill-rule="evenodd"/>
      <path d="M389 188 352.37 186.444 303 174" stroke="#7DEFE6" stroke-width="2" stroke-miterlimit="8" fill="none" fill-rule="evenodd"/>
      <path d="M357 258 308.462 246.864 283 223" stroke="#7DEFE6" stroke-width="2" stroke-miterlimit="8" fill="none" fill-rule="evenodd"/>
   </g>
</svg>