<svg width="1280" height="720" xmlns="http://www.w3.org/2000/svg" xmlns:xlink="http://www.w3.org/1999/xlink" overflow="hidden">
   <g>
      <path d="M478 117 662.646 117 697 151.354 697 457 697 457 512.354 457 478 422.646 478 117Z" stroke="#7DEFE6" stroke-width="2" stroke-miterlimit="8" fill="none" fill-rule="evenodd"/>
      <path d="M483.5 122.5 560 122.5 568.5 131 568.5 139.5 483.5 139.5Z" stroke="#7DEFE6" stroke-width="1.33333" stroke-miterlimit="8" fill="#7DEFE6" fill-rule="evenodd"/>
      <path d="M568.5 122.5 575.017 128.167 575.017 139.5 585.5 139.5 585.5 129.399 577.567 122.5 568.5 122.5Z" stroke="#7DEFE6" stroke-width="1.33333" stroke-miterlimit="8" fill="#7DEFE6" fill-rule="evenodd"/>
      <path d="M585.5 122.5 592.017 128.167 592.017 139.5 602.5 139.5 602.5 129.399 594.567 122.5 585.5 122.5Z" stroke="#7DEFE6" stroke-width="1.33333" stroke-miterlimit="8" fill="#7DEFE6" fill-rule="evenodd"/>
      <path d="M602.5 122.5 608.633 128.167 608.633 139.5 618.5 139.5 618.5 129.399 611.033 122.5 602.5 122.5Z" stroke="#7DEFE6" stroke-width="1.33333" stroke-miterlimit="8" fill="#7DEFE6" fill-rule="evenodd"/>
      <path d="M618.5 122.5 625.017 128.167 625.017 139.5 635.5 139.5 635.5 129.399 627.567 122.5 618.5 122.5Z" stroke="#7DEFE6" stroke-width="1.33333" stroke-miterlimit="8" fill="#7DEFE6" fill-rule="evenodd"/>
      <path d="M635.5 122.5 642.017 128.167 642.017 139.5 652.5 139.5 652.5 129.399 644.567 122.5 635.5 122.5Z" stroke="#7DEFE6" stroke-width="1.33333" stroke-miterlimit="8" fill="#7DEFE6" fill-rule="evenodd"/>
      <path d="M690.5 450.5 614 450.5 605.5 442 605.5 433.5 690.5 433.5Z" stroke="#7DEFE6" stroke-width="1.33333" stroke-miterlimit="8" fill="#7DEFE6" fill-rule="evenodd"/>
      <path d="M606.5 450.5 599.983 444.833 599.983 433.5 589.5 433.5 589.5 443.602 597.433 450.5 606.5 450.5Z" stroke="#7DEFE6" stroke-width="1.33333" stroke-miterlimit="8" fill="#7DEFE6" fill-rule="evenodd"/>
      <path d="M589.5 450.5 582.983 444.833 582.983 433.5 572.5 433.5 572.5 443.602 580.433 450.5 589.5 450.5Z" stroke="#7DEFE6" stroke-width="1.33333" stroke-miterlimit="8" fill="#7DEFE6" fill-rule="evenodd"/>
      <path d="M573.5 451.5 566.983 445.5 566.983 433.5 556.5 433.5 556.5 444.196 564.433 451.5 573.5 451.5Z" stroke="#7DEFE6" stroke-width="1.33333" stroke-miterlimit="8" fill="#7DEFE6" fill-rule="evenodd"/>
      <path d="M556.5 451.5 549.983 445.5 549.983 433.5 539.5 433.5 539.5 444.196 547.433 451.5 556.5 451.5Z" stroke="#7DEFE6" stroke-width="1.33333" stroke-miterlimit="8" fill="#7DEFE6" fill-rule="evenodd"/>
      <path d="M539.5 451.5 532.983 445.5 532.983 433.5 522.5 433.5 522.5 444.196 530.433 451.5 539.5 451.5Z" stroke="#7DEFE6" stroke-width="1.33333" stroke-miterlimit="8" fill="#7DEFE6" fill-rule="evenodd"/>
      <path d="M696.862 117.5 698.5 119.197 698.5 146.5 670.5 117.5Z" stroke="#7DEFE6" stroke-width="1.33333" stroke-miterlimit="8" fill="#7DEFE6" fill-rule="evenodd"/>
      <path d="M480.139 457.5 478.5 455.744 478.5 427.5 506.5 457.5Z" stroke="#7DEFE6" stroke-width="1.33333" stroke-miterlimit="8" fill="#7DEFE6" fill-rule="evenodd"/>
   </g>
</svg>